<?xml version="1.0" encoding="UTF-8" standalone="no"?>
<!-- Created with Inkscape (http://www.inkscape.org/) -->

<svg
   xmlns:dc="http://purl.org/dc/elements/1.1/"
   xmlns:cc="http://creativecommons.org/ns#"
   xmlns:rdf="http://www.w3.org/1999/02/22-rdf-syntax-ns#"
   xmlns:svg="http://www.w3.org/2000/svg"
   xmlns="http://www.w3.org/2000/svg"
   xmlns:sodipodi="http://sodipodi.sourceforge.net/DTD/sodipodi-0.dtd"
   xmlns:inkscape="http://www.inkscape.org/namespaces/inkscape"
   width="120"
   height="25"
   id="svg9758"
   version="1.1"
   inkscape:version="0.48.3.1 r9886"
   sodipodi:docname="New document 9">
  <defs
     id="defs9760" />
  <sodipodi:namedview
     id="base"
     pagecolor="#ffffff"
     bordercolor="#666666"
     borderopacity="1.0"
     inkscape:pageopacity="0.0"
     inkscape:pageshadow="2"
     inkscape:zoom="5.6"
     inkscape:cx="58.643215"
     inkscape:cy="16.762061"
     inkscape:document-units="px"
     inkscape:current-layer="layer1"
     showgrid="true"
     fit-margin-top="0"
     fit-margin-left="0"
     fit-margin-right="0"
     fit-margin-bottom="0"
     inkscape:window-width="1072"
     inkscape:window-height="897"
     inkscape:window-x="390"
     inkscape:window-y="183"
     inkscape:window-maximized="0">
    <inkscape:grid
       type="xygrid"
       id="grid9766"
       empspacing="5"
       visible="true"
       enabled="true"
       snapvisiblegridlinesonly="true"
       originx="-260px"
       originy="-450px" />
  </sodipodi:namedview>
  <metadata
     id="metadata9763">
    <rdf:RDF>
      <cc:Work
         rdf:about="">
        <dc:format>image/svg+xml</dc:format>
        <dc:type
           rdf:resource="http://purl.org/dc/dcmitype/StillImage" />
        <dc:title></dc:title>
      </cc:Work>
    </rdf:RDF>
  </metadata>
  <g
     inkscape:label="Layer 1"
     inkscape:groupmode="layer"
     id="layer1"
     transform="translate(-260,-577.36218)">
    <text
       xml:space="preserve"
       style="font-size:10px;font-style:italic;font-variant:normal;font-weight:500;font-stretch:normal;text-indent:0;text-align:center;text-decoration:none;line-height:100%;letter-spacing:0px;word-spacing:0px;text-transform:none;direction:ltr;block-progression:tb;writing-mode:lr-tb;text-anchor:middle;baseline-shift:baseline;color:#000000;fill:#000000;fill-opacity:1;fill-rule:nonzero;stroke:none;stroke-width:1px;marker:none;visibility:visible;display:inline;overflow:visible;enable-background:accumulate;font-family:CMU Serif;-inkscape-font-specification:CMU Serif Medium Italic"
       x="272.5"
       y="591.36224"
       id="text8866"
       sodipodi:linespacing="100%"><tspan
         sodipodi:role="line"
         id="tspan8868"
         x="272.5"
         y="591.36224">s<tspan
   style="font-size:65.00091553%;font-style:normal;baseline-shift:sub;-inkscape-font-specification:CMU Serif Medium"
   id="tspan8878">0</tspan></tspan></text>
    <text
       sodipodi:linespacing="100%"
       id="text8870"
       y="591.36224"
       x="297.5"
       style="font-size:10px;font-style:italic;font-variant:normal;font-weight:500;font-stretch:normal;text-indent:0;text-align:center;text-decoration:none;line-height:100%;letter-spacing:0px;word-spacing:0px;text-transform:none;direction:ltr;block-progression:tb;writing-mode:lr-tb;text-anchor:middle;baseline-shift:baseline;color:#000000;fill:#000000;fill-opacity:1;fill-rule:nonzero;stroke:none;stroke-width:1px;marker:none;visibility:visible;display:inline;overflow:visible;enable-background:accumulate;font-family:CMU Serif;-inkscape-font-specification:CMU Serif Medium Italic"
       xml:space="preserve"><tspan
         y="591.36224"
         x="297.5"
         id="tspan8872"
         sodipodi:role="line">s<tspan
   style="font-size:65.00091553%;font-style:normal;baseline-shift:sub;-inkscape-font-specification:CMU Serif Medium"
   id="tspan8880">1</tspan></tspan></text>
    <text
       xml:space="preserve"
       style="font-size:10px;font-style:italic;font-variant:normal;font-weight:500;font-stretch:normal;text-indent:0;text-align:center;text-decoration:none;line-height:100%;letter-spacing:0px;word-spacing:0px;text-transform:none;direction:ltr;block-progression:tb;writing-mode:lr-tb;text-anchor:middle;baseline-shift:baseline;color:#000000;fill:#000000;fill-opacity:1;fill-rule:nonzero;stroke:none;stroke-width:1px;marker:none;visibility:visible;display:inline;overflow:visible;enable-background:accumulate;font-family:CMU Serif;-inkscape-font-specification:CMU Serif Medium Italic"
       x="347.5"
       y="591.36224"
       id="text8874"
       sodipodi:linespacing="100%"><tspan
         sodipodi:role="line"
         id="tspan8876"
         x="347.5"
         y="591.36224">s<tspan
   style="font-size:65.00091553%;font-style:normal;baseline-shift:sub;-inkscape-font-specification:CMU Serif Medium"
   id="tspan8882">t</tspan></tspan></text>
    <path
       sodipodi:type="arc"
       style="fill:none;stroke:#000000;stroke-width:0.57735032;stroke-miterlimit:4;stroke-dasharray:none"
       id="path8884"
       sodipodi:cx="1675"
       sodipodi:cy="-1817.5"
       sodipodi:rx="10"
       sodipodi:ry="7.5"
       d="m 1685,-1817.5 c 0,4.1421 -4.4772,7.5 -10,7.5 -5.5228,0 -10,-3.3579 -10,-7.5 0,-4.1421 4.4772,-7.5 10,-7.5 5.5228,0 10,3.3579 10,7.5 z"
       transform="matrix(0.75,0,0,0.99999997,-983.75,2407.3621)" />
    <path
       transform="matrix(0.75,0,0,0.99999997,-958.75,2407.3621)"
       d="m 1685,-1817.5 c 0,4.1421 -4.4772,7.5 -10,7.5 -5.5228,0 -10,-3.3579 -10,-7.5 0,-4.1421 4.4772,-7.5 10,-7.5 5.5228,0 10,3.3579 10,7.5 z"
       sodipodi:ry="7.5"
       sodipodi:rx="10"
       sodipodi:cy="-1817.5"
       sodipodi:cx="1675"
       id="path9670"
       style="fill:none;stroke:#000000;stroke-width:0.57735032;stroke-miterlimit:4;stroke-dasharray:none"
       sodipodi:type="arc" />
    <path
       sodipodi:type="arc"
       style="fill:none;stroke:#000000;stroke-width:0.57735032;stroke-miterlimit:4;stroke-dasharray:none"
       id="path9672"
       sodipodi:cx="1675"
       sodipodi:cy="-1817.5"
       sodipodi:rx="10"
       sodipodi:ry="7.5"
       d="m 1685,-1817.5 c 0,4.1421 -4.4772,7.5 -10,7.5 -5.5228,0 -10,-3.3579 -10,-7.5 0,-4.1421 4.4772,-7.5 10,-7.5 5.5228,0 10,3.3579 10,7.5 z"
       transform="matrix(0.75,0,0,0.99999997,-908.75,2407.3621)" />
    <g
       style="font-size:10px;font-style:normal;font-variant:normal;font-weight:500;font-stretch:normal;text-indent:0;text-align:start;text-decoration:none;line-height:100%;letter-spacing:0px;word-spacing:0px;text-transform:none;direction:ltr;block-progression:tb;writing-mode:lr-tb;text-anchor:start;baseline-shift:baseline;color:#000000;fill:#000000;fill-opacity:1;fill-rule:nonzero;stroke:none;stroke-width:1px;marker:none;visibility:visible;display:inline;overflow:visible;enable-background:accumulate;font-family:CMU Serif;-inkscape-font-specification:CMU Serif Medium"
       id="g9674"
       transform="matrix(0,1,-1,0,-1415,-544.63774)">
      <path
         d="m 1134.5,-1694.8791 c 0.19,-0.01 0.2,-0.19 0.2,-0.38 l 0,-8.6709 c 0.61,0.71 1.39,1.2 2.3,1.35 l 0,-0.4 c -1.66,-0.3 -2.3,-1.6 -2.5,-2.02 -0.12,0.26 -0.75,1.71 -2.5,2.02 l 0,0.4 c 0.91,-0.15 1.69,-0.64 2.3,-1.35 l 0,8.7109 c 0,0.15 0.01,0.34 0.2,0.34"
         style="marker:none"
         id="path9676"
         inkscape:connector-curvature="0"
         sodipodi:nodetypes="cscccccccsc" />
      <path
         sodipodi:nodetypes="cscccccccsc"
         inkscape:connector-curvature="0"
         id="path9678"
         style="marker:none"
         d="m 1134.5,-1719.8791 c 0.19,-0.01 0.2,-0.19 0.2,-0.38 l 0,-8.6709 c 0.61,0.71 1.39,1.2 2.3,1.35 l 0,-0.4 c -1.66,-0.3 -2.3,-1.6 -2.5,-2.02 -0.12,0.26 -0.75,1.71 -2.5,2.02 l 0,0.4 c 0.91,-0.15 1.69,-0.64 2.3,-1.35 l 0,8.7109 c 0,0.15 0.01,0.34 0.2,0.34" />
      <path
         d="m 1134.5,-1744.8791 c 0.19,-0.01 0.2,-0.19 0.2,-0.38 l 0,-8.6709 c 0.61,0.71 1.39,1.2 2.3,1.35 l 0,-0.4 c -1.66,-0.3 -2.3,-1.6 -2.5,-2.02 -0.12,0.26 -0.75,1.71 -2.5,2.02 l 0,0.4 c 0.91,-0.15 1.69,-0.64 2.3,-1.35 l 0,8.7109 c 0,0.15 0.01,0.34 0.2,0.34"
         style="marker:none"
         id="path9680"
         inkscape:connector-curvature="0"
         sodipodi:nodetypes="cscccccccsc" />
      <path
         sodipodi:nodetypes="cscccccccsc"
         inkscape:connector-curvature="0"
         id="path9682"
         style="marker:none"
         d="m 1134.5,-1769.8791 c 0.19,-0.01 0.2,-0.19 0.2,-0.38 l 0,-8.6709 c 0.61,0.71 1.39,1.2 2.3,1.35 l 0,-0.4 c -1.66,-0.3 -2.3,-1.6 -2.5,-2.02 -0.12,0.26 -0.75,1.71 -2.5,2.02 l 0,0.4 c 0.91,-0.15 1.69,-0.64 2.3,-1.35 l 0,8.7109 c 0,0.15 0.01,0.34 0.2,0.34" />
      <text
         xml:space="preserve"
         style="font-size:10px;font-style:normal;font-variant:normal;font-weight:500;font-stretch:normal;text-indent:0;text-align:center;text-decoration:none;line-height:100%;letter-spacing:0px;word-spacing:0px;text-transform:none;direction:ltr;block-progression:tb;writing-mode:lr-tb;text-anchor:middle;baseline-shift:baseline;color:#000000;fill:#000000;fill-opacity:1;fill-rule:nonzero;stroke:none;stroke-width:1px;marker:none;visibility:visible;display:inline;overflow:visible;enable-background:accumulate;font-family:CMU Serif;-inkscape-font-specification:CMU Serif Medium"
         x="1737.5"
         y="1135"
         id="text9684"
         sodipodi:linespacing="100%"
         transform="matrix(0,-1,1,0,0,0)"><tspan
           sodipodi:role="line"
           id="tspan9686"
           x="1737.5"
           y="1135">...</tspan></text>
      <text
         transform="matrix(0,-1,1,0,0,0)"
         sodipodi:linespacing="100%"
         id="text9688"
         y="1135"
         x="1787.5"
         style="font-size:10px;font-style:normal;font-variant:normal;font-weight:500;font-stretch:normal;text-indent:0;text-align:center;text-decoration:none;line-height:100%;letter-spacing:0px;word-spacing:0px;text-transform:none;direction:ltr;block-progression:tb;writing-mode:lr-tb;text-anchor:middle;baseline-shift:baseline;color:#000000;fill:#000000;fill-opacity:1;fill-rule:nonzero;stroke:none;stroke-width:1px;marker:none;visibility:visible;display:inline;overflow:visible;enable-background:accumulate;font-family:CMU Serif;-inkscape-font-specification:CMU Serif Medium"
         xml:space="preserve"><tspan
           y="1135"
           x="1787.5"
           id="tspan9690"
           sodipodi:role="line">...</tspan></text>
    </g>
  </g>
</svg>
