<?xml version="1.0" encoding="UTF-8" standalone="no"?>
<!-- Created with Inkscape (http://www.inkscape.org/) -->

<svg
   xmlns:dc="http://purl.org/dc/elements/1.1/"
   xmlns:cc="http://creativecommons.org/ns#"
   xmlns:rdf="http://www.w3.org/1999/02/22-rdf-syntax-ns#"
   xmlns:svg="http://www.w3.org/2000/svg"
   xmlns="http://www.w3.org/2000/svg"
   xmlns:sodipodi="http://sodipodi.sourceforge.net/DTD/sodipodi-0.dtd"
   xmlns:inkscape="http://www.inkscape.org/namespaces/inkscape"
   width="140"
   height="55"
   id="svg2"
   version="1.1"
   inkscape:version="0.91 r13725"
   sodipodi:docname="states.svg">
  <defs
     id="defs4">
    <marker
       inkscape:isstock="true"
       style="overflow:visible;"
       id="marker4755"
       refX="0.0"
       refY="0.0"
       orient="auto"
       inkscape:stockid="Arrow2Mend">
      <path
         transform="scale(0.6) rotate(180) translate(0,0)"
         d="M 8.7185878,4.0337352 L -2.2072895,0.016013256 L 8.7185884,-4.0017078 C 6.9730900,-1.6296469 6.9831476,1.6157441 8.7185878,4.0337352 z "
         style="fill-rule:evenodd;stroke-width:0.625;stroke-linejoin:round;stroke:#000000;stroke-opacity:1;fill:#000000;fill-opacity:1"
         id="path4757" />
    </marker>
    <marker
       inkscape:stockid="Arrow2Mend"
       orient="auto"
       refY="0.0"
       refX="0.0"
       id="Arrow2Mend"
       style="overflow:visible;"
       inkscape:isstock="true"
       inkscape:collect="always">
      <path
         id="path4518"
         style="fill-rule:evenodd;stroke-width:0.625;stroke-linejoin:round;stroke:#000000;stroke-opacity:1;fill:#000000;fill-opacity:1"
         d="M 8.7185878,4.0337352 L -2.2072895,0.016013256 L 8.7185884,-4.0017078 C 6.9730900,-1.6296469 6.9831476,1.6157441 8.7185878,4.0337352 z "
         transform="scale(0.6) rotate(180) translate(0,0)" />
    </marker>
    <marker
       inkscape:stockid="Arrow1Mend"
       orient="auto"
       refY="0.0"
       refX="0.0"
       id="Arrow1Mend"
       style="overflow:visible;"
       inkscape:isstock="true">
      <path
         id="path4500"
         d="M 0.0,0.0 L 5.0,-5.0 L -12.5,0.0 L 5.0,5.0 L 0.0,0.0 z "
         style="fill-rule:evenodd;stroke:#000000;stroke-width:1pt;stroke-opacity:1;fill:#000000;fill-opacity:1"
         transform="scale(0.4) rotate(180) translate(10,0)" />
    </marker>
    <marker
       inkscape:stockid="Arrow1Lstart"
       orient="auto"
       refY="0.0"
       refX="0.0"
       id="Arrow1Lstart"
       style="overflow:visible"
       inkscape:isstock="true">
      <path
         id="path4491"
         d="M 0.0,0.0 L 5.0,-5.0 L -12.5,0.0 L 5.0,5.0 L 0.0,0.0 z "
         style="fill-rule:evenodd;stroke:#000000;stroke-width:1pt;stroke-opacity:1;fill:#000000;fill-opacity:1"
         transform="scale(0.8) translate(12.5,0)" />
    </marker>
    <marker
       inkscape:isstock="true"
       style="overflow:visible"
       id="marker4755-5"
       refX="0"
       refY="0"
       orient="auto"
       inkscape:stockid="Arrow2Mend">
      <path
         inkscape:connector-curvature="0"
         transform="scale(-0.6,-0.6)"
         d="M 8.7185878,4.0337352 -2.2072895,0.01601326 8.7185884,-4.0017078 c -1.7454984,2.3720609 -1.7354408,5.6174519 -6e-7,8.035443 z"
         style="fill:#000000;fill-opacity:1;fill-rule:evenodd;stroke:#000000;stroke-width:0.625;stroke-linejoin:round;stroke-opacity:1"
         id="path4757-3" />
    </marker>
    <marker
       inkscape:isstock="true"
       style="overflow:visible"
       id="marker4755-2"
       refX="0"
       refY="0"
       orient="auto"
       inkscape:stockid="Arrow2Mend">
      <path
         inkscape:connector-curvature="0"
         transform="scale(-0.6,-0.6)"
         d="M 8.7185878,4.0337352 -2.2072895,0.01601326 8.7185884,-4.0017078 c -1.7454984,2.3720609 -1.7354408,5.6174519 -6e-7,8.035443 z"
         style="fill:#000000;fill-opacity:1;fill-rule:evenodd;stroke:#000000;stroke-width:0.625;stroke-linejoin:round;stroke-opacity:1"
         id="path4757-0" />
    </marker>
    <marker
       inkscape:isstock="true"
       style="overflow:visible"
       id="marker4755-55"
       refX="0"
       refY="0"
       orient="auto"
       inkscape:stockid="Arrow2Mend">
      <path
         inkscape:connector-curvature="0"
         transform="scale(-0.6,-0.6)"
         d="M 8.7185878,4.0337352 -2.2072895,0.01601326 8.7185884,-4.0017078 c -1.7454984,2.3720609 -1.7354408,5.6174519 -6e-7,8.035443 z"
         style="fill:#000000;fill-opacity:1;fill-rule:evenodd;stroke:#000000;stroke-width:0.625;stroke-linejoin:round;stroke-opacity:1"
         id="path4757-5" />
    </marker>
    <marker
       inkscape:isstock="true"
       style="overflow:visible"
       id="marker4755-9"
       refX="0"
       refY="0"
       orient="auto"
       inkscape:stockid="Arrow2Mend">
      <path
         inkscape:connector-curvature="0"
         transform="scale(-0.6,-0.6)"
         d="M 8.7185878,4.0337352 -2.2072895,0.01601326 8.7185884,-4.0017078 c -1.7454984,2.3720609 -1.7354408,5.6174519 -6e-7,8.035443 z"
         style="fill:#000000;fill-opacity:1;fill-rule:evenodd;stroke:#000000;stroke-width:0.625;stroke-linejoin:round;stroke-opacity:1"
         id="path4757-4" />
    </marker>
    <marker
       inkscape:isstock="true"
       style="overflow:visible"
       id="marker4755-0"
       refX="0"
       refY="0"
       orient="auto"
       inkscape:stockid="Arrow2Mend">
      <path
         inkscape:connector-curvature="0"
         transform="scale(-0.6,-0.6)"
         d="M 8.7185878,4.0337352 -2.2072895,0.01601326 8.7185884,-4.0017078 c -1.7454984,2.3720609 -1.7354408,5.6174519 -6e-7,8.035443 z"
         style="fill:#000000;fill-opacity:1;fill-rule:evenodd;stroke:#000000;stroke-width:0.625;stroke-linejoin:round;stroke-opacity:1"
         id="path4757-31" />
    </marker>
    <marker
       inkscape:isstock="true"
       style="overflow:visible"
       id="marker4755-7"
       refX="0"
       refY="0"
       orient="auto"
       inkscape:stockid="Arrow2Mend">
      <path
         inkscape:connector-curvature="0"
         transform="scale(-0.6,-0.6)"
         d="M 8.7185878,4.0337352 -2.2072895,0.01601326 8.7185884,-4.0017078 c -1.7454984,2.3720609 -1.7354408,5.6174519 -6e-7,8.035443 z"
         style="fill:#000000;fill-opacity:1;fill-rule:evenodd;stroke:#000000;stroke-width:0.625;stroke-linejoin:round;stroke-opacity:1"
         id="path4757-9" />
    </marker>
    <marker
       inkscape:isstock="true"
       style="overflow:visible"
       id="marker4755-97"
       refX="0"
       refY="0"
       orient="auto"
       inkscape:stockid="Arrow2Mend">
      <path
         inkscape:connector-curvature="0"
         transform="scale(-0.6,-0.6)"
         d="M 8.7185878,4.0337352 -2.2072895,0.01601326 8.7185884,-4.0017078 c -1.7454984,2.3720609 -1.7354408,5.6174519 -6e-7,8.035443 z"
         style="fill:#000000;fill-opacity:1;fill-rule:evenodd;stroke:#000000;stroke-width:0.625;stroke-linejoin:round;stroke-opacity:1"
         id="path4757-7" />
    </marker>
  </defs>
  <sodipodi:namedview
     id="base"
     pagecolor="#ffffff"
     bordercolor="#666666"
     borderopacity="1.0"
     inkscape:pageopacity="0.0"
     inkscape:pageshadow="2"
     inkscape:zoom="7.9195959"
     inkscape:cx="50.365328"
     inkscape:cy="88.820185"
     inkscape:document-units="px"
     inkscape:current-layer="layer1"
     showgrid="false"
     inkscape:window-width="1440"
     inkscape:window-height="856"
     inkscape:window-x="-2"
     inkscape:window-y="0"
     inkscape:window-maximized="0"
     fit-margin-top="0"
     fit-margin-left="0"
     fit-margin-right="0"
     fit-margin-bottom="0"
     inkscape:snap-center="true"
     inkscape:snap-object-midpoints="true">
    <inkscape:grid
       type="xygrid"
       id="grid2985"
       empspacing="5"
       visible="true"
       enabled="true"
       snapvisiblegridlinesonly="true"
       originx="-265px"
       originy="-495px" />
  </sodipodi:namedview>
  <metadata
     id="metadata7">
    <rdf:RDF>
      <cc:Work
         rdf:about="">
        <dc:format>image/svg+xml</dc:format>
        <dc:type
           rdf:resource="http://purl.org/dc/dcmitype/StillImage" />
        <dc:title />
      </cc:Work>
    </rdf:RDF>
  </metadata>
  <g
     inkscape:label="Layer 1"
     inkscape:groupmode="layer"
     id="layer1"
     transform="translate(-265,-502.36218)">
    <path
       sodipodi:nodetypes="cc"
       inkscape:connector-curvature="0"
       id="path4753-66"
       d="m 335.18163,476.76581 c 2.05569,-1.58455 2.98536,-2.8784 4.7804,-4.2111"
       style="fill:none;stroke:#000000;stroke-width:0.5;stroke-miterlimit:4;stroke-dasharray:none;stroke-opacity:1;marker-end:url(#marker4755-7)" />
    <path
       style="fill:none;stroke:#000000;stroke-width:0.5;stroke-miterlimit:4;stroke-dasharray:none;stroke-opacity:1;marker-end:url(#Arrow2Mend)"
       d="m 307.58424,472.52515 c 0.58157,-2.52951 2.02582,-4.72342 4.23002,-6.70805"
       id="path4485"
       inkscape:connector-curvature="0"
       sodipodi:nodetypes="cc" />
    <path
       sodipodi:nodetypes="cc"
       inkscape:connector-curvature="0"
       id="path4753-6"
       d="m 322.14435,462.02389 c 2.05569,-1.58455 7.56261,0.68871 10.52564,0.55556"
       style="fill:none;stroke:#000000;stroke-width:0.5;stroke-miterlimit:4;stroke-dasharray:none;stroke-opacity:1;marker-end:url(#marker4755-5)" />
    <path
       sodipodi:nodetypes="cc"
       inkscape:connector-curvature="0"
       id="path4753-2"
       d="m 307.56027,472.53579 c 2.11882,-0.0693 3.58514,-0.19517 6.54817,-0.32832"
       style="fill:none;stroke:#000000;stroke-width:0.5;stroke-miterlimit:4;stroke-dasharray:none;stroke-opacity:1;marker-end:url(#marker4755-2)" />
    <path
       sodipodi:nodetypes="cc"
       inkscape:connector-curvature="0"
       id="path4753-9"
       d="m 316.46225,471.52564 c 1.17181,-2.46843 2.48028,-3.69915 9.67332,-4.33737"
       style="fill:none;stroke:#000000;stroke-width:0.5;stroke-miterlimit:4;stroke-dasharray:none;stroke-opacity:1;marker-end:url(#marker4755-55)" />
    <path
       sodipodi:nodetypes="cc"
       inkscape:connector-curvature="0"
       id="path4753-99"
       d="m 316.39911,471.52564 c 1.48748,2.07725 3.26946,2.36177 7.05324,2.7337"
       style="fill:none;stroke:#000000;stroke-width:0.5;stroke-miterlimit:4;stroke-dasharray:none;stroke-opacity:1;marker-end:url(#marker4755-9)" />
    <path
       sodipodi:nodetypes="cc"
       inkscape:connector-curvature="0"
       id="path4753-7"
       d="m 325.71145,474.49296 c 2.18196,2.36136 3.96394,2.48804 7.21108,2.48116"
       style="fill:none;stroke:#000000;stroke-width:0.5;stroke-miterlimit:4;stroke-dasharray:none;stroke-opacity:1;marker-end:url(#marker4755-0)" />
    <path
       sodipodi:nodetypes="cc"
       inkscape:connector-curvature="0"
       id="path4753-8"
       d="m 328.58407,467.29562 c 2.18147,0.4778 4.09392,-0.94219 5.19078,-1.78041"
       style="fill:none;stroke:#000000;stroke-width:0.5;stroke-miterlimit:4;stroke-dasharray:none;stroke-opacity:1;marker-end:url(#marker4755-97)" />
    <path
       sodipodi:nodetypes="cc"
       inkscape:connector-curvature="0"
       id="path4753"
       d="m 313.9245,464.38355 c 1.41953,-1.14129 3.22093,-1.8934 6.08161,-2.12733"
       style="fill:none;stroke:#000000;stroke-width:0.5;stroke-miterlimit:4;stroke-dasharray:none;stroke-opacity:1;marker-end:url(#marker4755)" />
    <path
       transform="translate(-73.996733,-2.4983256)"
       sodipodi:type="arc"
       style="fill:none;stroke:#000000;stroke-width:0.5;stroke-miterlimit:4;stroke-dasharray:none"
       id="path2987-77"
       sodipodi:cx="360"
       sodipodi:cy="527.36218"
       sodipodi:rx="1"
       sodipodi:ry="1"
       d="m 361,527.36218 a 1,1 0 0 1 -1,1 1,1 0 0 1 -1,-1 1,1 0 0 1 1,-1 1,1 0 0 1 1,1 z" />
    <g
       id="g3935"
       transform="translate(-43.035714,19.464286)"
       style="stroke:#000000">
      <path
         d="m 361,527.36218 a 1,1 0 0 1 -1,1 1,1 0 0 1 -1,-1 1,1 0 0 1 1,-1 1,1 0 0 1 1,1 z"
         sodipodi:ry="1"
         sodipodi:rx="1"
         sodipodi:cy="527.36218"
         sodipodi:cx="360"
         id="path2987-6"
         style="fill:none;stroke:#000000;stroke-width:0.5;stroke-miterlimit:4;stroke-dasharray:none"
         sodipodi:type="arc"
         transform="translate(15.051311,-19.071113)" />
      <path
         d="m 361,527.36218 a 1,1 0 0 1 -1,1 1,1 0 0 1 -1,-1 1,1 0 0 1 1,-1 1,1 0 0 1 1,1 z"
         sodipodi:ry="1"
         sodipodi:rx="1"
         sodipodi:cy="527.36218"
         sodipodi:cx="360"
         id="path2987-59"
         style="fill:none;stroke:#000000;stroke-width:0.5;stroke-miterlimit:4;stroke-dasharray:none"
         sodipodi:type="arc"
         transform="matrix(1,0,0,-1,24.900298,1033.2541)" />
      <path
         d="m 361,527.36218 a 1,1 0 0 1 -1,1 1,1 0 0 1 -1,-1 1,1 0 0 1 1,-1 1,1 0 0 1 1,1 z"
         sodipodi:ry="1"
         sodipodi:rx="1"
         sodipodi:cy="527.36218"
         sodipodi:cx="360"
         id="path2987-82"
         style="fill:none;stroke:#000000;stroke-width:0.5;stroke-miterlimit:4;stroke-dasharray:none"
         sodipodi:type="arc"
         transform="translate(16.440271,-26.26845)" />
      <path
         sodipodi:nodetypes="zzzzzzz"
         inkscape:connector-curvature="0"
         id="path3873"
         d="m 374.91738,498.00463 c -2.37242,1.1269 -1.12875,3.4679 -1.50756,5.86702 -0.37881,2.39912 -2.66698,4.8339 -0.16195,6.53667 2.50504,1.70278 4.30453,-0.20155 7.39626,-1.18238 3.09174,-0.98083 7.23433,0.13787 7.22667,-3.21406 -0.008,-3.35193 -3.57887,-3.30334 -6.28413,-4.81223 -2.70527,-1.50888 -4.29687,-4.32192 -6.66929,-3.19502 z"
         style="fill:none;stroke:#000000;stroke-width:0.5;stroke-linecap:square;stroke-linejoin:round;stroke-miterlimit:4;stroke-opacity:1;stroke-dasharray:none;stroke-dashoffset:0" />
    </g>
    <g
       id="g4396"
       style="stroke:#000000">
      <circle
         id="path2987-4"
         style="fill:none;stroke:#000000;stroke-width:0.5;stroke-miterlimit:4;stroke-dasharray:none"
         transform="matrix(0.99418063,-0.1077259,0.1077259,0.99418063,0,0)"
         cx="317.88953"
         cy="559.75714"
         r="1" />
      <circle
         id="path2987-7"
         style="fill:none;stroke:#000000;stroke-width:0.5;stroke-miterlimit:4;stroke-dasharray:none"
         transform="matrix(0.99418063,-0.1077259,0.1077259,0.99418063,0,0)"
         cx="321.42505"
         cy="566.95447"
         r="1" />
      <circle
         id="path2987-47"
         style="fill:none;stroke:#000000;stroke-width:0.5;stroke-miterlimit:4;stroke-dasharray:none"
         cx="383.12357"
         cy="517.42206"
         r="1" />
      <circle
         id="path2987-73"
         style="fill:none;stroke:#000000;stroke-width:0.5;stroke-miterlimit:4;stroke-dasharray:none"
         cx="389.43701"
         cy="524.61938"
         r="1" />
      <circle
         id="path2987-3"
         style="fill:none;stroke:#000000;stroke-width:0.5;stroke-miterlimit:4;stroke-dasharray:none"
         cx="391.20477"
         cy="515.78058"
         r="1" />
      <path
         sodipodi:nodetypes="zzzzzzz"
         inkscape:connector-curvature="0"
         id="path3875"
         d="m 392.97255,513.57085 c 1.60993,1.7362 0.0631,3.59867 -0.69449,6.88166 -0.75762,3.283 1.45211,5.55583 -2.14656,6.62913 -3.59868,1.07329 -4.41943,-2.02031 -6.43974,-4.98763 -2.02032,-2.96733 -4.16688,-3.66181 -3.03045,-6.06092 1.13642,-2.39911 3.72494,-0.82074 6.12405,-1.32582 2.39911,-0.50508 4.57726,-2.87263 6.18719,-1.13642 z"
         style="fill:none;stroke:#000000;stroke-width:0.5;stroke-linecap:square;stroke-linejoin:round;stroke-miterlimit:4;stroke-dasharray:none;stroke-dashoffset:0;stroke-opacity:1" />
      <path
         sodipodi:nodetypes="zzzzz"
         inkscape:connector-curvature="0"
         id="path3915"
         d="m 374.64053,519.68303 c -2.90216,1.93383 0.0503,4.56684 1.87639,7.35366 1.82607,2.78684 3.54544,6.34727 5.85209,4.19221 2.30666,-2.15506 -0.29458,-4.47687 -1.63367,-6.87193 -1.33909,-2.39507 -3.19266,-6.60776 -6.09481,-4.67394 z"
         style="fill:none;stroke:#000000;stroke-width:0.5;stroke-linecap:square;stroke-linejoin:round;stroke-miterlimit:4;stroke-dasharray:none;stroke-dashoffset:0;stroke-opacity:1" />
      <path
         sodipodi:nodetypes="sssssssss"
         inkscape:connector-curvature="0"
         id="path3917"
         d="m 371.69621,519.06356 c 0.76011,-2.43985 4.81029,-0.68543 6.3626,-3.55122 2.46395,-4.54882 4.905,-2.19265 8.20214,-3.09786 3.92643,-1.07798 6.70357,-3.11085 9.11071,-0.73766 2.30655,2.27402 -0.55208,6.14389 -0.66057,9.77932 -0.0922,3.09076 1.47467,5.54346 -0.0339,6.76192 -1.45898,1.17841 -5.76304,0.79936 -7.96376,2.05258 -2.75133,1.56678 -2.98968,4.23964 -5.2945,4.19774 -5.31331,-0.0966 -11.73136,-8.95736 -9.72272,-15.40482 z"
         style="fill:none;stroke:#000000;stroke-width:0.5;stroke-linecap:square;stroke-linejoin:round;stroke-miterlimit:4;stroke-dasharray:none;stroke-dashoffset:0;stroke-opacity:1" />
    </g>
    <g
       id="g4390"
       transform="translate(-30.714286,-11.25)"
       style="stroke:#000000">
      <circle
         style="fill:none;stroke:#000000;stroke-width:0.5;stroke-miterlimit:4;stroke-dasharray:none"
         id="path4370"
         cx="366.15927"
         cy="475.10065"
         r="1" />
      <circle
         style="fill:none;stroke:#000000;stroke-width:0.5;stroke-miterlimit:4;stroke-dasharray:none"
         id="path4372"
         cx="372.47275"
         cy="482.29797"
         r="1" />
      <circle
         style="fill:none;stroke:#000000;stroke-width:0.5;stroke-miterlimit:4;stroke-dasharray:none"
         id="path4374"
         cx="374.24051"
         cy="473.45914"
         r="1" />
      <path
         style="fill:none;stroke:#000000;stroke-width:0.5;stroke-linecap:square;stroke-linejoin:round;stroke-miterlimit:4;stroke-dasharray:none;stroke-dashoffset:0;stroke-opacity:1"
         d="m 376.00826,471.24942 c 1.60993,1.7362 0.0631,3.59867 -0.69449,6.88166 -0.75762,3.283 1.45211,5.55583 -2.14656,6.62913 -3.59868,1.07329 -4.41943,-2.02031 -6.43974,-4.98763 -2.02032,-2.96733 -4.16688,-3.66181 -3.03045,-6.06092 1.13642,-2.39911 3.72494,-0.82074 6.12405,-1.32582 2.39911,-0.50508 4.57726,-2.87263 6.18719,-1.13642 z"
         id="path4376"
         inkscape:connector-curvature="0"
         sodipodi:nodetypes="zzzzzzz" />
    </g>
    <text
       xml:space="preserve"
       style="font-size:10px;font-style:italic;font-variant:normal;font-weight:500;font-stretch:normal;text-align:center;line-height:100%;letter-spacing:0px;word-spacing:0px;text-anchor:middle;fill:#000000;fill-opacity:1;stroke:none;font-family:CMU Serif;-inkscape-font-specification:CMU Serif Medium Italic"
       x="285"
       y="552.36218"
       id="text3919"
       sodipodi:linespacing="100%"><tspan
         sodipodi:role="line"
         id="tspan3921"
         x="285"
         y="552.36218">d</tspan></text>
    <text
       xml:space="preserve"
       style="font-size:10px;font-style:italic;font-variant:normal;font-weight:500;font-stretch:normal;text-align:center;line-height:100%;letter-spacing:0px;word-spacing:0px;text-anchor:middle;fill:#000000;fill-opacity:1;stroke:none;font-family:CMU Serif;-inkscape-font-specification:CMU Serif Medium Italic"
       x="335"
       y="552.36218"
       id="text3923"
       sodipodi:linespacing="100%"><tspan
         sodipodi:role="line"
         id="tspan3925"
         x="335"
         y="552.36218">D, s</tspan></text>
    <text
       xml:space="preserve"
       style="font-size:10px;font-style:italic;font-variant:normal;font-weight:500;font-stretch:normal;text-align:center;line-height:100%;letter-spacing:0px;word-spacing:0px;text-anchor:middle;fill:#000000;fill-opacity:1;stroke:none;font-family:CMU Serif;-inkscape-font-specification:CMU Serif Medium Italic"
       x="385"
       y="552.36218"
       id="text3927"
       sodipodi:linespacing="100%"><tspan
         sodipodi:role="line"
         id="tspan3929"
         x="385"
         y="552.36218">S</tspan></text>
    <g
       transform="translate(-77.321428,-33.392857)"
       id="g4360">
      <circle
         transform="translate(15.051311,-19.071113)"
         style="fill:none;stroke:#000000;stroke-width:0.5;stroke-miterlimit:4;stroke-dasharray:none"
         id="path4362"
         cx="360"
         cy="527.36218"
         r="1" />
      <circle
         transform="matrix(1,0,0,-1,24.900298,1033.2541)"
         style="fill:#ffffff;stroke:#000000;stroke-width:0.5;stroke-miterlimit:4;stroke-dasharray:none"
         id="path4364"
         cx="360"
         cy="527.36218"
         r="1" />
      <circle
         transform="translate(16.440271,-26.26845)"
         style="fill:none;stroke:#000000;stroke-width:0.5;stroke-miterlimit:4;stroke-dasharray:none"
         id="path4366"
         cx="360"
         cy="527.36218"
         r="1" />
      <path
         style="fill:none;stroke:#000000;stroke-width:0.5;stroke-linecap:square;stroke-linejoin:round;stroke-miterlimit:4;stroke-dasharray:none;stroke-dashoffset:0;stroke-opacity:1"
         d="m 374.91738,498.00463 c -2.37242,1.1269 -1.12875,3.4679 -1.50756,5.86702 -0.37881,2.39912 -2.66698,4.8339 -0.16195,6.53667 2.50504,1.70278 4.30453,-0.20155 7.39626,-1.18238 3.09174,-0.98083 7.23433,0.13787 7.22667,-3.21406 -0.008,-3.35193 -3.57887,-3.30334 -6.28413,-4.81223 -2.70527,-1.50888 -4.29687,-4.32192 -6.66929,-3.19502 z"
         id="path4368"
         inkscape:connector-curvature="0"
         sodipodi:nodetypes="zzzzzzz" />
    </g>
    <text
       sodipodi:linespacing="100%"
       id="text4406"
       y="474.32648"
       x="284.91074"
       style="font-style:italic;font-variant:normal;font-weight:500;font-stretch:normal;font-size:10px;line-height:100%;font-family:'CMU Serif';-inkscape-font-specification:'CMU Serif Medium Italic';text-align:center;letter-spacing:0px;word-spacing:0px;text-anchor:middle;fill:#000000;fill-opacity:1;stroke:none"
       xml:space="preserve"><tspan
         y="474.32648"
         x="284.91074"
         id="tspan4408"
         sodipodi:role="line">D<tspan
   style="font-size:64.99999762%;baseline-shift:sub"
   id="tspan4410">I</tspan></tspan></text>
    <text
       xml:space="preserve"
       style="font-style:italic;font-variant:normal;font-weight:500;font-stretch:normal;font-size:10px;line-height:100%;font-family:'CMU Serif';-inkscape-font-specification:'CMU Serif Medium Italic';text-align:center;letter-spacing:0px;word-spacing:0px;text-anchor:middle;fill:#000000;fill-opacity:1;stroke:none"
       x="355"
       y="470.04074"
       id="text4412"
       sodipodi:linespacing="100%"><tspan
         sodipodi:role="line"
         id="tspan4414"
         x="355"
         y="470.04074">D<tspan
   style="font-size:64.99999762%;baseline-shift:sub"
   id="tspan4418">T</tspan></tspan></text>
    <circle
       id="path4420"
       style="fill:none;stroke:#000000;stroke-width:0.5;stroke-miterlimit:4;stroke-dasharray:none"
       cx="304.57471"
       cy="462.1853"
       r="1" />
    <circle
       r="1"
       cy="464.42905"
       cx="313.77484"
       style="fill:#ffffff;stroke:#000000;stroke-width:0.5;stroke-miterlimit:4;stroke-dasharray:none"
       id="circle4422" />
    <circle
       id="circle4424"
       style="fill:none;stroke:#000000;stroke-width:0.5;stroke-miterlimit:4;stroke-dasharray:none"
       cx="314.35651"
       cy="458.06808"
       r="1" />
    <circle
       r="1"
       cy="461.98135"
       cx="322.16507"
       style="fill:#ffffff;stroke:#000000;stroke-width:0.5;stroke-miterlimit:4;stroke-dasharray:none"
       id="circle4426" />
    <circle
       r="1"
       cy="456.99496"
       cx="329.58636"
       style="fill:none;stroke:#000000;stroke-width:0.5;stroke-miterlimit:4;stroke-dasharray:none"
       id="circle4426-2" />
    <circle
       r="1"
       cy="467.32889"
       cx="328.5318"
       style="fill:#ffffff;stroke:#000000;stroke-width:0.5;stroke-miterlimit:4;stroke-dasharray:none"
       id="circle4426-9" />
    <circle
       r="1"
       cy="471.55859"
       cx="316.42856"
       style="fill:#ffffff;stroke:#000000;stroke-width:0.5;stroke-miterlimit:4;stroke-dasharray:none"
       id="circle4426-4" />
    <circle
       r="1"
       cy="474.5827"
       cx="325.77927"
       style="fill:#ffffff;stroke:#000000;stroke-width:0.5;stroke-miterlimit:4;stroke-dasharray:none"
       id="circle4426-8" />
    <circle
       r="1"
       cy="480.73074"
       cx="305.20178"
       style="fill:none;stroke:#000000;stroke-width:0.5;stroke-miterlimit:4;stroke-dasharray:none"
       id="circle4426-5" />
    <circle
       r="1"
       cy="481.04825"
       cx="316.10468"
       style="fill:none;stroke:#000000;stroke-width:0.5;stroke-miterlimit:4;stroke-dasharray:none"
       id="circle4426-0" />
    <circle
       r="1"
       cy="476.81857"
       cx="335.1337"
       style="fill:#ffffff;stroke:#000000;stroke-width:0.5;stroke-miterlimit:4;stroke-dasharray:none"
       id="circle4426-6" />
    <circle
       r="1"
       cy="481.86456"
       cx="325.52301"
       style="fill:none;stroke:#000000;stroke-width:0.5;stroke-miterlimit:4;stroke-dasharray:none"
       id="circle4426-65" />
  </g>
</svg>
